<?xml version="1.0" encoding="utf-8"?>
<!-- Generator: Adobe Illustrator 17.0.1, SVG Export Plug-In . SVG Version: 6.00 Build 0)  -->
<!DOCTYPE svg PUBLIC "-//W3C//DTD SVG 1.1//EN" "http://www.w3.org/Graphics/SVG/1.1/DTD/svg11.dtd">
<svg version="1.1" xmlns="http://www.w3.org/2000/svg" xmlns:xlink="http://www.w3.org/1999/xlink" x="0px" y="0px"
	 width="743.176px" height="1322.766px" viewBox="0 0 743.176 1322.766" enable-background="new 0 0 743.176 1322.766"
	 xml:space="preserve">
<g id="background">
	<rect x="232.227" y="509.832" fill="#2CC3EB" width="335.707" height="277.488"/>
	<rect x="288.934" y="565.405" fill="#F47B20" width="224.183" height="166.152"/>
</g>
<g id="lines">
	<rect x="231.093" y="509.832" fill="#010101" width="2.268" height="54.817"/>
	<rect x="231.093" y="508.698" fill="#010101" width="57.841" height="2.268"/>
	<rect x="288.934" y="508.698" fill="#010101" width="57.086" height="2.268"/>
	<rect x="346.019" y="508.698" fill="#010101" width="55.573" height="2.268"/>
	<rect x="401.593" y="508.698" fill="#010101" width="56.33" height="2.268"/>
	<rect x="457.922" y="508.698" fill="#010101" width="55.195" height="2.268"/>
	<rect x="513.118" y="508.698" fill="#010101" width="54.817" height="2.268"/>
	<rect x="566.8" y="509.832" fill="#010101" width="2.268" height="54.817"/>
	<rect x="566.8" y="564.649" fill="#010101" width="2.268" height="56.14"/>
	<rect x="566.8" y="620.789" fill="#010101" width="2.268" height="55.574"/>
	<rect x="567.047" y="676.363" fill="#010101" width="2.268" height="55.761"/>
	<rect x="231.093" y="676.363" fill="#010101" width="2.268" height="55.761"/>
	<rect x="231.093" y="620.411" fill="#010101" width="2.268" height="55.952"/>
	<rect x="231.093" y="564.649" fill="#010101" width="2.268" height="55.761"/>
	<rect x="287.8" y="676.551" fill="#010101" width="2.268" height="55.573"/>
	<rect x="287.8" y="620.977" fill="#010101" width="2.268" height="55.574"/>
	<rect x="287.8" y="565.216" fill="#010101" width="2.268" height="55.761"/>
	<rect x="287.8" y="509.832" fill="#010101" width="2.268" height="55.384"/>
	<rect x="345.263" y="732.03" fill="#010101" width="2.268" height="55.667"/>
	<rect x="345.263" y="509.832" fill="#010101" width="2.268" height="54.486"/>
	<rect x="401.215" y="732.03" fill="#010101" width="2.268" height="55.667"/>
	<rect x="401.215" y="509.832" fill="#010101" width="2.268" height="54.486"/>
	<rect x="456.788" y="732.03" fill="#010101" width="2.268" height="55.667"/>
	<rect x="456.788" y="509.832" fill="#010101" width="2.268" height="54.486"/>
	<rect x="511.983" y="676.551" fill="#010101" width="2.268" height="55.573"/>
	<rect x="511.983" y="620.978" fill="#010101" width="2.268" height="55.573"/>
	<rect x="511.983" y="564.649" fill="#010101" width="2.268" height="56.329"/>
	<rect x="511.983" y="509.832" fill="#010101" width="2.268" height="54.817"/>
	<rect x="513.118" y="563.515" fill="#010101" width="54.817" height="2.268"/>
	<rect x="457.922" y="563.515" fill="#010101" width="55.195" height="2.268"/>
	<rect x="288.935" y="563.515" fill="#010101" width="57.463" height="2.268"/>
	<rect x="232.227" y="563.515" fill="#010101" width="56.708" height="2.268"/>
	<path fill="none" stroke="#010101" stroke-width="2" stroke-miterlimit="10" d="M569.068,732.124"/>
	<path fill="none" stroke="#010101" stroke-width="2" stroke-miterlimit="10" d="M232.227,732.124"/>
	
		<rect x="255.393" y="550.378" transform="matrix(0.7071 0.7071 -0.7071 0.7071 470.5355 -32.9494)" fill="#010101" width="39.296" height="2.268"/>
	
		<rect x="227.607" y="522.591" transform="matrix(0.7071 0.7071 -0.7071 0.7071 442.7489 -21.4398)" fill="#010101" width="39.296" height="2.268"/>
	
		<rect x="246.121" y="531.864" transform="matrix(0.7071 0.7071 -0.7071 0.7071 462.397 -13.3013)" fill="#010101" width="2.268" height="39.296"/>
	
		<rect x="273.907" y="504.077" transform="matrix(0.7071 0.7071 -0.7071 0.7071 450.8874 -41.0879)" fill="#010101" width="2.268" height="39.296"/>
	
		<rect x="255.393" y="605.762" transform="matrix(0.7071 0.7071 -0.7071 0.7071 509.6977 -16.7279)" fill="#010101" width="39.296" height="2.268"/>
	
		<rect x="227.607" y="577.975" transform="matrix(0.7071 0.7071 -0.7071 0.7071 481.9111 -5.2183)" fill="#010101" width="39.296" height="2.268"/>
	
		<rect x="246.121" y="587.248" transform="matrix(0.7071 0.7071 -0.7071 0.7071 501.5592 2.9202)" fill="#010101" width="2.268" height="39.296"/>
	
		<rect x="273.907" y="559.461" transform="matrix(0.7071 0.7071 -0.7071 0.7071 490.0496 -24.8664)" fill="#010101" width="2.268" height="39.296"/>
	
		<rect x="255.393" y="661.146" transform="matrix(0.7071 0.7071 -0.7071 0.7071 548.8603 -0.5062)" fill="#010101" width="39.296" height="2.268"/>
	
		<rect x="227.607" y="633.359" transform="matrix(0.7071 0.7071 -0.7071 0.7071 521.0737 11.0034)" fill="#010101" width="39.296" height="2.268"/>
	
		<rect x="246.121" y="642.632" transform="matrix(0.7071 0.7071 -0.7071 0.7071 540.7218 19.1419)" fill="#010101" width="2.268" height="39.296"/>
	
		<rect x="273.907" y="614.845" transform="matrix(0.7071 0.7071 -0.7071 0.7071 529.2123 -8.6447)" fill="#010101" width="2.268" height="39.296"/>
	
		<rect x="255.393" y="716.53" transform="matrix(0.7071 0.7071 -0.7071 0.7071 588.0225 15.7154)" fill="#010101" width="39.296" height="2.268"/>
	
		<rect x="227.607" y="688.743" transform="matrix(0.7071 0.7071 -0.7071 0.7071 560.236 27.2249)" fill="#010101" width="39.296" height="2.268"/>
	
		<rect x="246.121" y="698.016" transform="matrix(0.7071 0.7071 -0.7071 0.7071 579.884 35.3634)" fill="#010101" width="2.268" height="39.296"/>
	
		<rect x="273.907" y="670.229" transform="matrix(0.7071 0.7071 -0.7071 0.7071 568.3745 7.5769)" fill="#010101" width="2.268" height="39.296"/>
	
		<rect x="255.393" y="771.914" transform="matrix(0.7071 0.7071 -0.7071 0.7071 627.1855 31.9372)" fill="#010101" width="39.296" height="2.268"/>
	
		<rect x="227.607" y="744.128" transform="matrix(0.7071 0.7071 -0.7071 0.7071 599.399 43.4468)" fill="#010101" width="39.296" height="2.268"/>
	
		<rect x="246.121" y="753.4" transform="matrix(0.7071 0.7071 -0.7071 0.7071 619.0471 51.5853)" fill="#010101" width="2.268" height="39.296"/>
	
		<rect x="273.907" y="725.614" transform="matrix(0.7071 0.7071 -0.7071 0.7071 607.5375 23.7987)" fill="#010101" width="2.268" height="39.296"/>
	
		<rect x="536.291" y="549.515" transform="matrix(0.7009 0.7132 -0.7132 0.7009 558.5872 -230.8469)" fill="#010101" width="36.54" height="2.268"/>
	
		<rect x="508.213" y="522.591" transform="matrix(0.7071 0.7071 -0.7071 0.7071 524.9368 -219.8589)" fill="#010101" width="39.296" height="2.268"/>
	
		<rect x="526.727" y="531.864" transform="matrix(0.7071 0.7071 -0.7071 0.7071 544.5848 -211.7204)" fill="#010101" width="2.268" height="39.296"/>
	
		<rect x="553.711" y="504.637" transform="matrix(0.7278 0.6858 -0.6858 0.7278 510.1958 -237.9486)" fill="#010101" width="2.267" height="38.177"/>
	
		<rect x="536.106" y="605.277" transform="matrix(0.6985 0.7156 -0.7156 0.6985 601.1974 -214.2217)" fill="#010101" width="37.478" height="2.269"/>
	
		<rect x="508.213" y="577.975" transform="matrix(0.7071 0.7071 -0.7071 0.7071 564.099 -203.6373)" fill="#010101" width="39.296" height="2.268"/>
	
		<rect x="526.727" y="587.248" transform="matrix(0.7071 0.7071 -0.7071 0.7071 583.7471 -195.4988)" fill="#010101" width="2.268" height="39.296"/>
	
		<rect x="553.427" y="560.664" transform="matrix(0.7287 0.6848 -0.6848 0.7287 547.1711 -222.5984)" fill="#010101" width="2.268" height="37.409"/>
	
		<rect x="536.13" y="660.508" transform="matrix(0.6948 0.7192 -0.7192 0.6948 645.0762 -196.9121)" fill="#010101" width="36.862" height="2.268"/>
	
		<rect x="508.213" y="633.359" transform="matrix(0.7071 0.7071 -0.7071 0.7071 603.2616 -187.4156)" fill="#010101" width="39.296" height="2.268"/>
	
		<rect x="526.727" y="642.632" transform="matrix(0.7071 0.7071 -0.7071 0.7071 622.9097 -179.2772)" fill="#010101" width="2.268" height="39.296"/>
	
		<rect x="553.427" y="616.944" transform="matrix(0.7156 0.6985 -0.6985 0.7156 601.465 -206.6947)" fill="#010101" width="2.269" height="36.659"/>
	
		<rect x="536.113" y="715.915" transform="matrix(0.6942 0.7198 -0.7198 0.6942 685.7381 -179.8844)" fill="#010101" width="36.896" height="2.268"/>
	
		<rect x="508.213" y="688.743" transform="matrix(0.7071 0.7071 -0.7071 0.7071 642.4238 -171.1941)" fill="#010101" width="39.296" height="2.268"/>
	
		<rect x="526.727" y="698.016" transform="matrix(0.7071 0.7071 -0.7071 0.7071 662.0719 -163.0556)" fill="#010101" width="2.268" height="39.296"/>
	
		<rect x="553.427" y="672.49" transform="matrix(0.7129 0.7012 -0.7012 0.7129 643.5616 -190.5852)" fill="#010101" width="2.268" height="36.523"/>
	
		<rect x="536.03" y="771.536" transform="matrix(0.6957 0.7183 -0.7183 0.6957 723.855 -163.4426)" fill="#010101" width="37.63" height="2.268"/>
	
		<rect x="508.213" y="744.128" transform="matrix(0.7071 0.7071 -0.7071 0.7071 681.5869 -154.9723)" fill="#010101" width="39.296" height="2.268"/>
	
		<rect x="526.727" y="753.4" transform="matrix(0.7071 0.7071 -0.7071 0.7071 701.2349 -146.8338)" fill="#010101" width="2.268" height="39.296"/>
	
		<rect x="553.427" y="728.237" transform="matrix(0.7071 0.7071 -0.7071 0.7071 690.1752 -173.5334)" fill="#010101" width="2.268" height="36.222"/>
	
		<rect x="311.722" y="550.378" transform="matrix(0.7071 0.7071 -0.7071 0.7071 487.0339 -72.7801)" fill="#010101" width="39.296" height="2.268"/>
	
		<rect x="283.936" y="522.591" transform="matrix(0.7071 0.7071 -0.7071 0.7071 459.2473 -61.2705)" fill="#010101" width="39.296" height="2.268"/>
	
		<rect x="302.45" y="531.864" transform="matrix(0.7071 0.7071 -0.7071 0.7071 478.8954 -53.132)" fill="#010101" width="2.268" height="39.296"/>
	
		<rect x="330.236" y="504.077" transform="matrix(0.7071 0.7071 -0.7071 0.7071 467.3858 -80.9185)" fill="#010101" width="2.268" height="39.296"/>
	
		<rect x="368.997" y="550.378" transform="matrix(0.7071 0.7071 -0.7071 0.7071 503.8027 -113.2807)" fill="#010101" width="39.297" height="2.268"/>
	
		<rect x="341.21" y="522.591" transform="matrix(0.7071 0.7071 -0.7071 0.7071 476.0226 -101.7695)" fill="#010101" width="39.296" height="2.268"/>
	
		<rect x="359.724" y="531.864" transform="matrix(0.7071 0.7071 -0.7071 0.7071 495.6707 -93.6311)" fill="#010101" width="2.268" height="39.296"/>
	
		<rect x="387.511" y="504.077" transform="matrix(0.7072 0.707 -0.707 0.7072 484.0499 -121.4345)" fill="#010101" width="2.268" height="39.297"/>
	
		<rect x="425.137" y="550.378" transform="matrix(0.7071 0.7071 -0.7071 0.7071 520.2524 -152.9766)" fill="#010101" width="39.296" height="2.268"/>
	
		<rect x="397.351" y="522.591" transform="matrix(0.7071 0.7071 -0.7071 0.7071 492.4659 -141.4671)" fill="#010101" width="39.296" height="2.268"/>
	
		<rect x="415.865" y="531.864" transform="matrix(0.7071 0.7071 -0.7071 0.7071 512.1139 -133.3286)" fill="#010101" width="2.268" height="39.296"/>
	
		<rect x="443.651" y="504.077" transform="matrix(0.7071 0.7071 -0.7071 0.7071 500.6043 -161.1151)" fill="#010101" width="2.268" height="39.296"/>
	
		<rect x="479.576" y="550.378" transform="matrix(0.7071 0.7071 -0.7071 0.7071 536.1972 -191.4708)" fill="#010101" width="39.296" height="2.268"/>
	
		<rect x="451.79" y="522.591" transform="matrix(0.7071 0.7071 -0.7071 0.7071 508.4106 -179.9613)" fill="#010101" width="39.296" height="2.268"/>
	
		<rect x="470.304" y="531.864" transform="matrix(0.7071 0.7071 -0.7071 0.7071 528.0587 -171.8228)" fill="#010101" width="2.268" height="39.296"/>
	
		<rect x="498.09" y="504.077" transform="matrix(0.7071 0.7071 -0.7071 0.7071 516.5491 -199.6093)" fill="#010101" width="2.268" height="39.296"/>
	
		<rect x="311.722" y="772.103" transform="matrix(0.7071 0.7071 -0.7071 0.7071 643.8171 -7.8383)" fill="#010101" width="39.296" height="2.268"/>
	
		<rect x="283.936" y="744.316" transform="matrix(0.7071 0.7071 -0.7071 0.7071 616.0305 3.6713)" fill="#010101" width="39.296" height="2.268"/>
	
		<rect x="302.45" y="753.589" transform="matrix(0.7071 0.7071 -0.7071 0.7071 635.6786 11.8098)" fill="#010101" width="2.268" height="39.296"/>
	
		<rect x="330.236" y="725.802" transform="matrix(0.7071 0.7071 -0.7071 0.7071 624.169 -15.9768)" fill="#010101" width="2.268" height="39.296"/>
	
		<rect x="368.997" y="772.103" transform="matrix(0.7071 0.7071 -0.7071 0.7071 660.5843 -48.3405)" fill="#010101" width="39.297" height="2.268"/>
	
		<rect x="341.21" y="744.316" transform="matrix(0.7071 0.7071 -0.7071 0.7071 632.8058 -36.8278)" fill="#010101" width="39.296" height="2.268"/>
	
		<rect x="359.724" y="753.589" transform="matrix(0.7071 0.7071 -0.7071 0.7071 652.4539 -28.6893)" fill="#010101" width="2.268" height="39.296"/>
	
		<rect x="387.511" y="725.802" transform="matrix(0.7072 0.707 -0.707 0.7072 640.806 -56.5198)" fill="#010101" width="2.268" height="39.297"/>
	
		<rect x="425.137" y="772.103" transform="matrix(0.7071 0.7071 -0.7071 0.7071 677.0356 -88.0349)" fill="#010101" width="39.296" height="2.268"/>
	
		<rect x="397.351" y="744.316" transform="matrix(0.7071 0.7071 -0.7071 0.7071 649.249 -76.5253)" fill="#010101" width="39.296" height="2.268"/>
	
		<rect x="415.865" y="753.589" transform="matrix(0.7071 0.7071 -0.7071 0.7071 668.8972 -68.3868)" fill="#010101" width="2.268" height="39.296"/>
	
		<rect x="443.651" y="725.802" transform="matrix(0.7071 0.7071 -0.7071 0.7071 657.3875 -96.1734)" fill="#010101" width="2.268" height="39.296"/>
	
		<rect x="479.576" y="772.103" transform="matrix(0.7071 0.7071 -0.7071 0.7071 692.9804 -126.5291)" fill="#010101" width="39.296" height="2.268"/>
	
		<rect x="451.79" y="744.316" transform="matrix(0.7071 0.7071 -0.7071 0.7071 665.1938 -115.0195)" fill="#010101" width="39.296" height="2.268"/>
	
		<rect x="470.304" y="753.589" transform="matrix(0.7071 0.7071 -0.7071 0.7071 684.8419 -106.881)" fill="#010101" width="2.268" height="39.296"/>
	
		<rect x="498.09" y="725.802" transform="matrix(0.7071 0.7071 -0.7071 0.7071 673.3323 -134.6676)" fill="#010101" width="2.268" height="39.296"/>
	<path fill="none" stroke="#010101" stroke-width="2" stroke-miterlimit="10" d="M401.593,565.405"/>
	<path fill="none" stroke="#010101" stroke-width="2" stroke-miterlimit="10" d="M346.02,509.832"/>
	<path fill="none" stroke="#010101" stroke-width="2" stroke-miterlimit="10" d="M346.02,565.405"/>
	<path fill="none" stroke="#010101" stroke-width="2" stroke-miterlimit="10" d="M401.593,509.832"/>
	<path fill="none" stroke="#010101" stroke-width="2" stroke-miterlimit="10" d="M457.922,565.405"/>
	<path fill="none" stroke="#010101" stroke-width="2" stroke-miterlimit="10" d="M402.349,509.832"/>
	<path fill="none" stroke="#010101" stroke-width="2" stroke-miterlimit="10" d="M402.349,565.405"/>
	<path fill="none" stroke="#010101" stroke-width="2" stroke-miterlimit="10" d="M457.922,509.832"/>
	<path fill="none" stroke="#010101" stroke-width="2" stroke-miterlimit="10" d="M511.983,565.405"/>
	<path fill="none" stroke="#010101" stroke-width="2" stroke-miterlimit="10" d="M456.41,509.832"/>
	<path fill="none" stroke="#010101" stroke-width="2" stroke-miterlimit="10" d="M456.41,565.405"/>
	<path fill="none" stroke="#010101" stroke-width="2" stroke-miterlimit="10" d="M511.983,509.832"/>
	<rect x="233.361" y="619.655" fill="#010101" width="55.573" height="2.268"/>
	<rect x="513.118" y="619.655" fill="#010101" width="54.25" height="2.268"/>
	<rect x="233.361" y="675.417" fill="#010101" width="55.573" height="2.268"/>
	<rect x="513.118" y="675.417" fill="#010101" width="54.25" height="2.268"/>
</g>
<g id="answer_x5F_1_x5F_2">
	<rect x="457.922" y="786.185" width="55.195" height="2.268"/>
	<rect x="401.593" y="786.185" width="56.33" height="2.268"/>
	<rect x="346.398" y="786.185" width="55.194" height="2.268"/>
	<rect x="288.934" y="786.185" width="57.464" height="2.268"/>
	<rect x="401.215" y="564.318" width="2.268" height="167.712"/>
	<rect x="288.935" y="730.99" width="57.463" height="2.268"/>
	<rect x="457.922" y="730.99" width="55.195" height="2.268"/>
</g>
<g id="answer_x5F_1">
	<rect x="232.227" y="786.185" width="56.707" height="2.268"/>
	<rect x="231.093" y="732.124" width="2.268" height="55.195"/>
	<rect x="345.263" y="564.318" width="2.268" height="167.712"/>
	<rect x="511.983" y="732.124" width="2.268" height="55.573"/>
	<rect x="346.398" y="563.515" width="55.951" height="2.268"/>
	<rect x="402.349" y="730.99" width="55.573" height="2.268"/>
	<rect x="232.227" y="730.99" width="56.708" height="2.268"/>
</g>
<g id="answer_x5F_2">
	<rect x="566.8" y="732.124" fill="#010101" width="2.268" height="55.195"/>
	<rect x="513.118" y="786.185" fill="#010101" width="54.817" height="2.268"/>
	<rect x="287.8" y="732.124" fill="#010101" width="2.268" height="55.573"/>
	<rect x="456.788" y="564.318" fill="#010101" width="2.268" height="167.712"/>
	<rect x="402.349" y="563.515" fill="#010101" width="55.573" height="2.268"/>
	<rect x="513.118" y="730.99" fill="#010101" width="54.817" height="2.268"/>
	<rect x="346.398" y="730.99" fill="#010101" width="55.951" height="2.268"/>
</g>
<g id="required">
	<path d="M543.16,733.634l-1.511-0.011l-284.648-1.946V675.23h116.127V508.332h58.685l-0.796,166.919l112.144,1.531V733.634z
		 M260.001,728.697l280.159,1.916V679.74l-112.157-1.531l0.796-166.878h-52.671V678.23H260.001V728.697z"/>
</g>
</svg>
